<svg width="51" height="14" viewBox="0 0 51 14" fill="none" xmlns="http://www.w3.org/2000/svg">
<path d="M6.91477 0.818182H8.14773V7.55966C8.14773 8.25568 7.98367 8.87713 7.65554 9.42401C7.33073 9.96757 6.87169 10.3968 6.27841 10.7116C5.68513 11.0232 4.98911 11.179 4.19034 11.179C3.39157 11.179 2.69555 11.0232 2.10227 10.7116C1.509 10.3968 1.0483 9.96757 0.72017 9.42401C0.39536 8.87713 0.232955 8.25568 0.232955 7.55966V0.818182H1.46591V7.46023C1.46591 7.95739 1.57528 8.39986 1.79403 8.78764C2.01278 9.17211 2.32434 9.47538 2.72869 9.69744C3.13636 9.91619 3.62358 10.0256 4.19034 10.0256C4.7571 10.0256 5.24432 9.91619 5.65199 9.69744C6.05966 9.47538 6.37121 9.17211 6.58665 8.78764C6.8054 8.39986 6.91477 7.95739 6.91477 7.46023V0.818182ZM11.6241 6.40625V11H10.4508V3.36364H11.5843V4.55682H11.6838C11.8627 4.16903 12.1345 3.85748 12.4991 3.62216C12.8637 3.38352 13.3343 3.2642 13.911 3.2642C14.4281 3.2642 14.8805 3.37027 15.2683 3.58239C15.6561 3.79119 15.9577 4.10938 16.1731 4.53693C16.3886 4.96117 16.4963 5.49811 16.4963 6.14773V11H15.323V6.22727C15.323 5.62737 15.1672 5.16004 14.8556 4.82528C14.5441 4.48722 14.1165 4.31818 13.573 4.31818C13.1984 4.31818 12.8637 4.39938 12.5687 4.56179C12.277 4.72419 12.0467 4.96117 11.8777 5.27273C11.7086 5.58428 11.6241 5.96212 11.6241 6.40625ZM18.6403 11V3.36364H19.8136V11H18.6403ZM19.2369 2.09091C19.0082 2.09091 18.811 2.01302 18.6452 1.85724C18.4828 1.70147 18.4016 1.5142 18.4016 1.29545C18.4016 1.0767 18.4828 0.889441 18.6452 0.733664C18.811 0.577888 19.0082 0.5 19.2369 0.5C19.4656 0.5 19.6611 0.577888 19.8235 0.733664C19.9892 0.889441 20.0721 1.0767 20.0721 1.29545C20.0721 1.5142 19.9892 1.70147 19.8235 1.85724C19.6611 2.01302 19.4656 2.09091 19.2369 2.09091ZM26.4767 11H25.1841L28.9228 0.818182H30.1955L33.9341 11H32.6415L29.5989 2.42898H29.5194L26.4767 11ZM26.954 7.02273H32.1642V8.11648H26.954V7.02273ZM35.361 13.8636V3.36364H36.4945V4.5767H36.6337C36.7199 4.44413 36.8392 4.27509 36.9917 4.0696C37.1474 3.8608 37.3695 3.67519 37.6578 3.51278C37.9495 3.34706 38.3439 3.2642 38.8411 3.2642C39.4841 3.2642 40.0508 3.42495 40.5414 3.74645C41.0319 4.06794 41.4147 4.52367 41.6898 5.11364C41.9649 5.7036 42.1025 6.39962 42.1025 7.2017C42.1025 8.01042 41.9649 8.71141 41.6898 9.30469C41.4147 9.89465 41.0336 10.352 40.5463 10.6768C40.0591 10.9983 39.4973 11.1591 38.861 11.1591C38.3704 11.1591 37.9777 11.0779 37.6827 10.9155C37.3877 10.7498 37.1607 10.5625 37.0016 10.3537C36.8425 10.1416 36.7199 9.96591 36.6337 9.8267H36.5343V13.8636H35.361ZM36.5144 7.18182C36.5144 7.75852 36.5989 8.26728 36.7679 8.7081C36.937 9.1456 37.1839 9.48864 37.5087 9.73722C37.8335 9.98248 38.2312 10.1051 38.7019 10.1051C39.1924 10.1051 39.6017 9.97585 39.9299 9.71733C40.2613 9.45549 40.5099 9.10417 40.6756 8.66335C40.8446 8.21922 40.9292 7.72538 40.9292 7.18182C40.9292 6.64489 40.8463 6.16098 40.6806 5.73011C40.5182 5.29593 40.2712 4.95289 39.9398 4.70099C39.6117 4.44579 39.199 4.31818 38.7019 4.31818C38.2246 4.31818 37.8236 4.43916 37.4988 4.68111C37.1739 4.91974 36.9287 5.2545 36.763 5.68537C36.5972 6.11293 36.5144 6.61174 36.5144 7.18182ZM43.8922 13.8636V3.36364H45.0257V4.5767H45.165C45.2511 4.44413 45.3704 4.27509 45.5229 4.0696C45.6787 3.8608 45.9007 3.67519 46.1891 3.51278C46.4808 3.34706 46.8752 3.2642 47.3723 3.2642C48.0153 3.2642 48.5821 3.42495 49.0726 3.74645C49.5632 4.06794 49.946 4.52367 50.2211 5.11364C50.4962 5.7036 50.6337 6.39962 50.6337 7.2017C50.6337 8.01042 50.4962 8.71141 50.2211 9.30469C49.946 9.89465 49.5648 10.352 49.0776 10.6768C48.5904 10.9983 48.0286 11.1591 47.3922 11.1591C46.9017 11.1591 46.5089 11.0779 46.214 10.9155C45.919 10.7498 45.6919 10.5625 45.5328 10.3537C45.3738 10.1416 45.2511 9.96591 45.165 9.8267H45.0655V13.8636H43.8922ZM45.0456 7.18182C45.0456 7.75852 45.1301 8.26728 45.2992 8.7081C45.4682 9.1456 45.7151 9.48864 46.04 9.73722C46.3648 9.98248 46.7625 10.1051 47.2331 10.1051C47.7237 10.1051 48.133 9.97585 48.4611 9.71733C48.7926 9.45549 49.0411 9.10417 49.2069 8.66335C49.3759 8.21922 49.4604 7.72538 49.4604 7.18182C49.4604 6.64489 49.3775 6.16098 49.2118 5.73011C49.0494 5.29593 48.8025 4.95289 48.4711 4.70099C48.1429 4.44579 47.7303 4.31818 47.2331 4.31818C46.7559 4.31818 46.3548 4.43916 46.03 4.68111C45.7052 4.91974 45.4599 5.2545 45.2942 5.68537C45.1285 6.11293 45.0456 6.61174 45.0456 7.18182Z" fill="white"/>
</svg>
